<?xml version="1.0" encoding="UTF-8" standalone="no"?>
<!DOCTYPE svg PUBLIC "-//W3C//DTD SVG 1.1//EN" "http://www.w3.org/Graphics/SVG/1.1/DTD/svg11.dtd">
<svg width="100%" height="100%" viewBox="0 0 1385 830" version="1.1" xmlns="http://www.w3.org/2000/svg" xmlns:xlink="http://www.w3.org/1999/xlink" xml:space="preserve" xmlns:serif="http://www.serif.com/" style="fill-rule:evenodd;clip-rule:evenodd;stroke-linejoin:round;stroke-miterlimit:2;">
    <g transform="matrix(1,0,0,1,-977.867,-760.838)">
        <g transform="matrix(4.16667,0,0,4.16667,0,0)">
            <g transform="matrix(1,0,0,1,340.227,381.744)">
                <path d="M0,-199.112L-0.61,-199.112L-0.822,-198.855C11.449,-188.745 11.953,-170.796 0.678,-145.506C-5.072,-132.61 -13.688,-119.633 -24.928,-106.941C-42.604,-87.228 -55.324,-68.804 -62.734,-52.183C-71.864,-31.707 -73.33,-14.15 -67.104,0L-66.683,0L-66.358,-0.142C-72.575,-14.123 -71.127,-31.529 -62.054,-51.881C-54.676,-68.429 -41.998,-86.788 -24.373,-106.445C-13.08,-119.196 -4.423,-132.237 1.359,-145.203C12.676,-170.585 12.204,-188.71 0,-199.112" style="fill:rgb(128,128,128);fill-rule:nonzero;"/>
            </g>
        </g>
        <g transform="matrix(4.16667,0,0,4.16667,0,0)">
            <g transform="matrix(1,0,0,1,279.169,182.689)">
                <path d="M0,198.999C-0.017,198.985 0.227,198.858 0.21,198.845C-3.651,191.866 -5.146,183.522 -4.261,173.914C-3.496,165.753 -1.042,156.903 3.09,147.441C3.651,146.154 4.245,144.856 4.871,143.549C10.644,131.484 19.112,118.714 30.131,105.451C33.551,101.335 37.122,97.187 40.808,92.98C52.095,80.095 60.692,67.029 66.492,54.208C66.994,53.098 67.475,52 67.932,50.916C77.618,27.899 77.164,10.768 66.605,-0.057L66.021,-0.057L65.796,0.173C76.396,10.731 76.89,27.674 67.272,50.558C66.806,51.666 66.316,52.788 65.802,53.922C60.03,66.678 51.469,79.683 40.229,92.513C36.596,96.66 33.071,100.751 29.692,104.811C18.633,118.103 10.119,130.912 4.3,143.021C3.626,144.425 2.987,145.816 2.386,147.196C-1.727,156.627 -4.185,165.463 -4.976,173.628C-5.908,183.413 -4.408,191.922 -0.495,199.056L-0.159,199.056L0,198.999Z" style="fill:rgb(102,102,102);fill-rule:nonzero;"/>
            </g>
        </g>
        <g transform="matrix(4.16667,0,0,4.16667,0,0)">
            <g transform="matrix(1,0,0,1,284.794,182.745)">
                <path d="M0,198.886C-0.033,198.86 0.129,198.747 0.096,198.72C-4.298,192.247 -6.155,184.028 -5.446,174.187C-4.836,166 -2.497,157.12 1.551,147.652C2.103,146.36 2.687,145.058 3.304,143.745C9.048,131.524 17.545,118.776 28.626,105.748C32.138,101.615 35.709,97.47 39.306,93.293C50.545,80.238 59.124,67.184 64.942,54.508C65.448,53.404 65.934,52.311 66.396,51.229C75.941,28.852 75.979,11.592 66.528,-0.113L65.968,-0.113L65.732,0.089C75.215,11.552 75.212,28.636 65.731,50.886C65.259,51.991 64.763,53.109 64.244,54.239C58.449,66.855 49.901,79.851 38.702,92.855C35.154,96.975 31.629,101.064 28.159,105.142C17.034,118.207 8.493,131 2.705,143.274C2.041,144.682 1.413,146.079 0.823,147.464C-3.201,156.906 -5.539,165.776 -6.168,173.969C-6.914,183.99 -5.033,192.372 -0.568,198.999L-0.176,198.999L0,198.886Z" style="fill:rgb(75,75,75);fill-rule:nonzero;"/>
            </g>
        </g>
        <g transform="matrix(4.16667,0,0,4.16667,0,0)">
            <g transform="matrix(1,0,0,1,290.42,182.802)">
                <path d="M0,198.772C-0.05,198.732 0.029,198.634 -0.02,198.594C-4.946,192.628 -7.165,184.532 -6.632,174.459C-6.178,166.247 -3.954,157.335 0.01,147.862C0.552,146.565 1.128,145.257 1.736,143.94C7.451,131.563 15.977,118.836 27.119,106.043C30.725,101.894 34.286,97.746 37.802,93.605C48.968,80.357 57.556,67.338 63.391,54.806C63.902,53.709 64.392,52.621 64.859,51.543C74.264,29.803 74.793,12.415 66.449,-0.17L65.915,-0.17L65.667,0.003C74.033,12.371 73.534,29.596 64.188,51.212C63.71,52.316 63.209,53.43 62.685,54.553C56.868,67.03 48.306,79.997 37.174,93.196C33.703,97.282 30.187,101.376 26.625,105.473C15.436,118.31 6.865,131.088 1.11,143.526C0.456,144.939 -0.161,146.34 -0.74,147.731C-4.677,157.184 -6.895,166.088 -7.361,174.31C-7.922,184.565 -5.658,192.821 -0.644,198.942L-0.193,198.942L0,198.772Z" style="fill:rgb(47,47,47);fill-rule:nonzero;"/>
            </g>
        </g>
        <g transform="matrix(4.16667,0,0,4.16667,0,0)">
            <g transform="matrix(1,0,0,1,296.045,182.859)">
                <path d="M0,198.659C-0.066,198.606 -0.068,198.523 -0.134,198.47C-5.593,193.01 -8.175,185.037 -7.817,174.732C-7.518,166.494 -5.409,157.553 -1.529,148.072C-0.997,146.77 -0.431,145.459 0.169,144.137C5.855,131.602 14.409,118.898 25.614,106.34C29.312,102.173 32.875,98.031 36.3,93.917C47.423,80.505 55.987,67.493 61.841,55.105C62.356,54.014 62.851,52.931 63.323,51.856C72.587,30.755 73.608,13.239 66.372,-0.227L65.862,-0.227L65.604,-0.081C72.852,13.191 71.856,30.557 62.647,51.54C62.163,52.642 61.655,53.752 61.127,54.869C55.287,67.206 46.743,80.17 35.647,93.538C32.264,97.599 28.744,101.689 25.092,105.804C13.837,118.413 5.239,131.177 -0.484,143.778C-1.129,145.196 -1.735,146.603 -2.303,147.999C-6.151,157.463 -8.249,166.401 -8.554,174.651C-8.928,185.141 -6.283,193.271 -0.717,198.886L-0.21,198.886L0,198.659Z" style="fill:rgb(19,19,19);fill-rule:nonzero;"/>
            </g>
        </g>
        <g transform="matrix(4.16667,0,0,4.16667,0,0)">
            <g transform="matrix(1,0,0,1,367.965,381.744)">
                <path d="M0,-199.112L-0.484,-199.112L-0.756,-198.994C5.375,-184.817 3.885,-167.31 -5.189,-146.961C-12.655,-130.213 -25.289,-111.955 -42.736,-92.694C-54.057,-80.313 -62.683,-67.564 -68.374,-54.799C-73.296,-43.758 -75.877,-33.34 -76.041,-23.836C-76.229,-13.111 -73.203,-5.107 -67.086,0L-66.521,0L-66.295,-0.283C-72.454,-5.222 -75.482,-13.142 -75.297,-23.824C-75.133,-33.226 -72.575,-43.545 -67.693,-54.496C-62.035,-67.187 -53.453,-79.869 -42.186,-92.192C-24.684,-111.512 -12.007,-129.837 -4.508,-146.658C4.615,-167.121 6.128,-184.766 0,-199.112" style="fill-rule:nonzero;"/>
            </g>
        </g>
        <g transform="matrix(4.16667,0,0,4.16667,0,0)">
            <g transform="matrix(1,0,0,1,361.797,297.347)">
                <path d="M0,41.238C-5.708,41.238 -10.565,39.224 -14.576,35.195C-18.587,31.166 -20.591,26.316 -20.591,20.648C-20.591,14.941 -18.587,10.074 -14.576,6.043C-10.565,2.015 -5.708,0 0,0L0,4.047C-4.55,4.047 -8.445,5.666 -11.684,8.906C-14.923,12.146 -16.543,16.058 -16.543,20.648C-16.543,25.199 -14.923,29.092 -11.684,32.33C-8.445,35.572 -4.55,37.191 0,37.191L0,41.238Z" style="fill-rule:nonzero;"/>
            </g>
        </g>
        <g transform="matrix(4.16667,0,0,4.16667,0,0)">
            <g transform="matrix(-1,0,0,1,742.88,23.931)">
                <rect x="369.474" y="274.224" width="3.932" height="39.621"/>
            </g>
        </g>
        <g transform="matrix(4.16667,0,0,4.16667,0,0)">
            <g transform="matrix(1,0,0,1,402.153,298.155)">
                <path d="M0,39.621L-17.179,39.621L-17.179,0L0,0L0,3.932L-13.246,3.932L-13.246,17.814L0,17.814L0,21.748L-13.246,21.748L-13.246,35.687L0,35.687L0,39.621Z" style="fill-rule:nonzero;"/>
            </g>
        </g>
        <g transform="matrix(4.16667,0,0,4.16667,0,0)">
            <g transform="matrix(1,0,0,1,433.114,297.056)">
                <path d="M0,41.82L-16.774,13.998L-16.774,40.72L-20.707,40.72L-20.707,0L-3.934,27.937L-3.934,1.099L0,1.099L0,41.82Z" style="fill-rule:nonzero;"/>
            </g>
        </g>
        <g transform="matrix(4.16667,0,0,4.16667,0,0)">
            <g transform="matrix(1,0,0,1,461.266,297.347)">
                <path d="M0,41.238C-5.708,41.238 -10.566,39.224 -14.576,35.195C-18.587,31.166 -20.591,26.316 -20.591,20.648C-20.591,14.941 -18.587,10.074 -14.576,6.043C-10.566,2.015 -5.708,0 0,0L0,4.047C-4.551,4.047 -8.444,5.666 -11.686,8.906C-14.924,12.146 -16.542,16.058 -16.542,20.648C-16.542,25.199 -14.924,29.092 -11.686,32.33C-8.444,35.572 -4.551,37.191 0,37.191L0,41.238Z" style="fill-rule:nonzero;"/>
            </g>
        </g>
        <g transform="matrix(4.16667,0,0,4.16667,0,0)">
            <g transform="matrix(1,0,0,1,487.119,298.155)">
                <path d="M0,39.621L-17.18,39.621L-17.18,0L0,0L0,3.932L-13.245,3.932L-13.245,17.814L0,17.814L0,21.748L-13.245,21.748L-13.245,35.687L0,35.687L0,39.621Z" style="fill-rule:nonzero;"/>
            </g>
        </g>
        <g transform="matrix(4.16667,0,0,4.16667,0,0)">
            <g transform="matrix(1,0,0,1,504.124,337.776)">
                <path d="M0,-39.621C-3.395,-37.576 -5.088,-34.01 -5.088,-28.92C-5.088,-26.336 -4.532,-23.771 -3.411,-21.228C-1.639,-17.295 -0.751,-13.67 -0.751,-10.353C-0.751,-6.267 -2.006,-2.814 -4.512,0L-10.063,0C-8.368,-1.002 -7.056,-2.584 -6.13,-4.742C-5.321,-6.633 -4.916,-8.678 -4.916,-10.873C-4.916,-13.42 -5.496,-15.924 -6.651,-18.392C-8.426,-22.25 -9.312,-25.853 -9.312,-29.209C-9.312,-33.297 -8.059,-36.766 -5.553,-39.621L0,-39.621Z" style="fill-rule:nonzero;"/>
            </g>
        </g>
        <g transform="matrix(4.16667,0,0,4.16667,0,0)">
            <g transform="matrix(1,0,0,1,505.124,298.156)">
                <path d="M0,4.318L61.912,4.318L61.912,0L3.86,0C2.13,1.042 0.848,2.485 0,4.318" style="fill-rule:nonzero;"/>
            </g>
        </g>
        <g transform="matrix(4.16667,0,0,4.16667,0,0)">
            <g transform="matrix(0,1,1,0,265.197,271.964)">
                <path d="M26.191,-30.509L30.509,-30.509L30.509,23.126C29.08,24.114 27.638,25.142 26.191,26.191L26.191,-30.509Z" style="fill-rule:nonzero;"/>
            </g>
        </g>
        <g transform="matrix(4.16667,0,0,4.16667,0,0)">
            <g transform="matrix(1,0,0,1,258.096,272.101)">
                <path d="M0,-18.026C0,-22.012 -1.41,-25.401 -4.229,-28.192C-7.048,-30.981 -10.452,-32.38 -14.438,-32.38L-14.438,-32.464L-17.599,-32.464L-17.599,-3.588L-14.438,-3.588C-10.452,-3.588 -7.048,-4.999 -4.229,-7.817C-1.41,-10.637 0,-14.04 0,-18.026M6.236,20.247L-1.538,20.247L-17.428,2.222L-17.599,2.222L-17.599,20.247L-23.408,20.247L-23.408,-38.273L-14.438,-38.273C-8.857,-38.273 -4.087,-36.294 -0.128,-32.335C3.83,-28.377 5.809,-23.607 5.809,-18.026C5.809,-13.297 4.342,-9.085 1.41,-5.383C-1.524,-1.678 -5.297,0.683 -9.91,1.708L6.236,20.247Z" style="fill-rule:nonzero;"/>
            </g>
        </g>
        <g transform="matrix(4.16667,0,0,4.16667,0,0)">
            <g transform="matrix(1,0,0,1,298.411,233.828)">
                <path d="M0,58.521L-25.372,58.521L-25.372,0L0,0L0,5.81L-19.563,5.81L-19.563,26.314L0,26.314L0,32.123L-19.563,32.123L-19.563,52.71L0,52.71L0,58.521Z" style="fill-rule:nonzero;"/>
            </g>
        </g>
        <g transform="matrix(4.16667,0,0,4.16667,0,0)">
            <g transform="matrix(1,0,0,1,392.598,263.044)">
                <path d="M0,0.088C0,-6.691 -2.378,-12.472 -7.133,-17.256C-11.89,-22.039 -17.656,-24.432 -24.433,-24.432C-31.154,-24.432 -36.906,-22.039 -41.69,-17.256C-46.474,-12.472 -48.866,-6.691 -48.866,0.088C-48.866,6.809 -46.474,12.561 -41.69,17.344C-36.906,22.127 -31.154,24.52 -24.433,24.52C-17.656,24.52 -11.89,22.127 -7.133,17.344C-2.378,12.561 0,6.809 0,0.088M6.066,0.088C6.066,8.459 3.089,15.621 -2.862,21.572C-8.814,27.524 -16.005,30.5 -24.433,30.5C-32.862,30.5 -40.039,27.524 -45.962,21.572C-51.885,15.621 -54.846,8.459 -54.846,0.088C-54.846,-8.342 -51.885,-15.532 -45.962,-21.484C-40.039,-27.434 -32.862,-30.412 -24.433,-30.412C-16.005,-30.412 -8.814,-27.434 -2.862,-21.484C3.089,-15.532 6.066,-8.342 6.066,0.088" style="fill-rule:nonzero;"/>
            </g>
        </g>
        <g transform="matrix(4.16667,0,0,4.16667,0,0)">
            <g transform="matrix(1,0,0,1,436.845,232.205)">
                <path d="M0,61.767L-24.773,20.674L-24.773,60.144L-30.584,60.144L-30.584,0L-5.811,41.263L-5.811,1.623L0,1.623L0,61.767Z" style="fill-rule:nonzero;"/>
            </g>
        </g>
        <g transform="matrix(4.16667,0,0,4.16667,0,0)">
            <g transform="matrix(1,0,0,1,489.285,232.036)">
                <path d="M0,60.313L-6.236,60.313L-23.151,15.631L-40.067,60.313L-46.304,60.313L-23.151,0L0,60.313Z" style="fill-rule:nonzero;"/>
            </g>
        </g>
        <g transform="matrix(4.16667,0,0,4.16667,0,0)">
            <g transform="matrix(1,0,0,1,526.602,232.205)">
                <path d="M0,61.767L-24.774,20.674L-24.774,60.144L-30.584,60.144L-30.584,0L-5.809,41.263L-5.809,1.623L0,1.623L0,61.767Z" style="fill-rule:nonzero;"/>
            </g>
        </g>
        <g transform="matrix(4.16667,0,0,4.16667,0,0)">
            <g transform="matrix(1,0,0,1,567.036,286.539)">
                <path d="M0,-46.901L-12.729,-46.901L-12.729,5.81L-18.539,5.81L-18.539,-46.901L-31.184,-46.901L-31.184,-52.711L0,-52.711L0,-46.901Z" style="fill-rule:nonzero;"/>
            </g>
        </g>
        <g transform="matrix(4.16667,0,0,4.16667,0,0)">
            <g transform="matrix(1,0,0,1,367.552,381.752)">
                <path d="M0,-199.151C-19.3,-188.873 -31.735,-170.948 -37.316,-145.362C-40.149,-132.376 -40.151,-119.489 -37.317,-106.7C-32.718,-86.928 -32.231,-68.705 -35.866,-52.039C-40.347,-31.496 -50.432,-14.145 -66.114,0L-94.024,0C-84.399,-5.037 -76.074,-12.983 -69.056,-23.838C-62.916,-33.332 -58.638,-43.611 -56.229,-54.656C-53.438,-67.447 -53.599,-80.044 -56.708,-92.45C-61.396,-111.832 -61.899,-129.954 -58.222,-146.818C-53.741,-167.358 -43.642,-184.802 -27.91,-199.151L0,-199.151Z" style="fill:rgb(197,29,28);fill-rule:nonzero;"/>
            </g>
        </g>
    </g>
</svg>
